<svg width="47" height="29" viewBox="0 0 47 29" fill="none" xmlns="http://www.w3.org/2000/svg">
<path d="M20.56 19.72C21.2533 20.2267 21.6 21.0267 21.6 22.12C21.6 23.1867 21.36 24.1067 20.88 24.88C20.4267 25.6267 19.7467 26.2933 18.84 26.88C16.8933 28.1333 14.2133 28.76 10.8 28.76C7.41333 28.76 4.78667 27.88 2.92 26.12C1.08 24.3333 0.16 21.8667 0.16 18.72C0.16 14.2667 1.32 10.3467 3.64 6.96C5.4 4.45333 7.85333 2.66667 11 1.6C12.6267 1.06667 14.24 0.8 15.84 0.8C17.44 0.8 18.7333 0.906666 19.72 1.12C20.7067 1.33333 21.5733 1.65333 22.32 2.08C23.9467 3.01333 24.76 4.22667 24.76 5.72C24.76 7.08 24.12 8.26667 22.84 9.28C21.6667 10.1867 20.6 10.64 19.64 10.64C18.68 10.64 18 10.5733 17.6 10.44C17.7067 9.48 17.76 8.69333 17.76 8.08C17.76 7.44 17.7467 6.89333 17.72 6.44C17.6933 5.98666 17.6133 5.54666 17.48 5.12C17.2133 4.13333 16.6667 3.64 15.84 3.64C15.04 3.64 14.2267 4.02667 13.4 4.8C12.6 5.54666 11.8533 6.56 11.16 7.84C9.58667 10.7467 8.8 13.92 8.8 17.36C8.8 19.0133 9.26667 20.32 10.2 21.28C11.1333 22.2133 12.6 22.68 14.6 22.68C16.0933 22.68 17.5467 22.1867 18.96 21.2C19.5733 20.7733 20.1067 20.28 20.56 19.72ZM28.1144 8.52C27.2077 7.82667 26.7544 6.74667 26.7544 5.28C26.7544 3.78667 27.2344 2.65333 28.1944 1.88C29.181 1.10666 30.5144 0.719998 32.1944 0.719998C33.261 0.719998 35.061 0.906665 37.5944 1.28L40.3144 1.68C41.221 1.78666 42.141 1.84 43.0744 1.84C44.0344 1.84 44.8344 1.64 45.4744 1.24C46.4344 2.09333 46.9144 3.13333 46.9144 4.36C46.9144 5.58667 46.3677 6.64 45.2744 7.52C44.1544 8.45333 42.8744 8.92 41.4344 8.92C40.741 8.92 39.8344 8.82667 38.7144 8.64C37.4077 12.7467 36.7544 16.2267 36.7544 19.08C36.7544 21.9333 37.4744 24.1067 38.9144 25.6C38.2477 26.8 37.421 27.6267 36.4344 28.08C35.4477 28.56 34.2077 28.8 32.7144 28.8C31.2477 28.8 30.0477 28.4 29.1144 27.6C28.2077 26.7733 27.7544 25.52 27.7544 23.84C27.7544 21.8933 28.2877 19.32 29.3544 16.12C30.421 12.9467 31.7544 10.1467 33.3544 7.72C32.581 7.64 31.7944 7.6 30.9944 7.6C29.341 7.6 28.381 7.90667 28.1144 8.52Z" fill="#0B5A34"/>
</svg>
